# xmcd
#
# Track frame offsets: 
#        150
#        9612
#        19457
#        31715
#        43562
#        54757
#        67600
#        80590
#        90802
#        99715
#        108175
#        124490
#        134932
#        150467
#        160987
#        175182
#        189145
#
# Disc length: 2750 seconds
#
# Revision: 0
# Processed by: cddbd v1.5.2PL0 Copyright (c) Steve Scherf et al.
# Submitted via: ExactAudioCopyFreeDBPlugin 1.0
#
DISCID=cb0abc11
DTITLE=The Dillards - Classic Dillards: The Lansdowne and Winston Music 
DTITLE=Publishers Collection Vol. I and II
DYEAR=1999
DGENRE=Bluegrass
TTITLE0=Dooley
TTITLE1=Old Home Place
TTITLE2=There Is A Time
TTITLE3=Whole World Round
TTITLE4=Somebody Touched Me
TTITLE5=Polly Vaughn
TTITLE6=Old Man At The Mill
TTITLE7=Ebo Walker
TTITLE8=Old Blue
TTITLE9=Groundhog
TTITLE10=Buckin' Mule
TTITLE11=Nobody Knows
TTITLE12=Forget Me Not
TTITLE13=Never See My Home Again
TTITLE14=Banks Of The Rouge Bayou
TTITLE15=Move On (Life Of The Common Man)
TTITLE16=Take Me Along For The Ride
EXTD=
EXTT0=
EXTT1=
EXTT2=
EXTT3=
EXTT4=
EXTT5=
EXTT6=
EXTT7=
EXTT8=
EXTT9=
EXTT10=
EXTT11=
EXTT12=
EXTT13=
EXTT14=
EXTT15=
EXTT16=
PLAYORDER=
